<svg xmlns="http://www.w3.org/2000/svg" viewBox="0 0 20 20"><defs><style>.cls-1{fill:#5c6870;}</style></defs><title>Ресурс 1</title><g id="Слой_2" data-name="Слой 2"><g id="Layer_1" data-name="Layer 1"><polygon class="cls-1" points="0 0 0 3 0 6 3 6 3 3 6 3 6 0 3 0 0 0"/><polygon class="cls-1" points="3 14 0 14 0 17 0 20 3 20 6 20 6 17 3 17 3 14"/><polygon class="cls-1" points="17 0 14 0 14 3 17 3 17 6 20 6 20 3 20 0 17 0"/><polygon class="cls-1" points="17 17 14 17 14 20 17 20 20 20 20 17 20 14 17 14 17 17"/></g></g></svg>