<?xml version="1.0" encoding="utf-8"?>
<!-- Generator: Adobe Illustrator 22.1.0, SVG Export Plug-In . SVG Version: 6.00 Build 0)  -->
<svg version="1.1" id="Layer_1" xmlns="http://www.w3.org/2000/svg" xmlns:xlink="http://www.w3.org/1999/xlink" x="0px" y="0px"
	 viewBox="0 0 74.7 72.3" style="fill:#81b3d2; enable-background:new 0 0 74.7 72.3;" xml:space="preserve">
<g>
	<path d="M29.5,65.3h16V41.4h-16V65.3L29.5,65.3z M42.6,62.4H32.4V44.3h10.1V62.4z"/>
	<path d="M72.6,39.4l2.1-2.1l-9.9-9.9v-27H51v13.2L37.3,0L0,37.4l2.1,2.1l7.8-7.8v37.8H6v2.9h63.9v-2.9h-5.1V31.6L72.6,39.4z
		 M53.9,3.4h7.9v21.1l-7.9-7.9V3.4z M61.9,69.4h-49V28.7L37.3,4.2l24.5,24.5V69.4z"/>
	<path d="M29.8,27.2c0,4.3,3.5,7.8,7.7,7.8c4.3,0,7.8-3.5,7.8-7.8c0-4.3-3.5-7.7-7.8-7.7C33.2,19.5,29.8,22.9,29.8,27.2z M37.5,22.2
		c2.7,0,5,2.2,5,5c0,2.7-2.2,5-5,5c-2.7,0-5-2.2-5-5C32.5,24.5,34.8,22.2,37.5,22.2z"/>
	<rect x="16.9" y="41.4" width="3" height="3.9"/>
	<rect x="22.8" y="41.4" width="3" height="3.9"/>
	<rect x="16.9" y="47.4" width="3" height="3.9"/>
	<rect x="22.8" y="47.4" width="3" height="3.9"/>
	<rect x="48.8" y="41.4" width="3" height="3.9"/>
	<rect x="54.8" y="41.4" width="3" height="3.9"/>
	<rect x="48.8" y="47.4" width="3" height="3.9"/>
	<rect x="54.8" y="47.4" width="3" height="3.9"/>
</g>
</svg>
