<?xml version="1.0" encoding="UTF-8"?><!DOCTYPE svg PUBLIC "-//W3C//DTD SVG 1.1//EN" "http://www.w3.org/Graphics/SVG/1.1/DTD/svg11.dtd"><svg xmlns="http://www.w3.org/2000/svg"><defs><style>.cls-1{fill:#5c6870}</style><style>.cls-1{fill:#5c6870}</style></defs><symbol id="fb" viewBox="0 0 12 22"><path d="M12 4V0H8a4 4 0 0 0-4 4v4H0v4h4v10h4V12h4V8H8V4h4z"/></symbol><symbol id="fullscreen" viewBox="0 0 20 20"><title>&#x420;&#x435;&#x441;&#x443;&#x440;&#x441; 1</title><g id="&#x421;&#x43B;&#x43E;&#x439;_2" data-name="&#x421;&#x43B;&#x43E;&#x439; 2"><g id="Layer_1" data-name="Layer 1"><path class="cls-1" d="M0 0v6h3V3h3V0H0zM3 14H0v6h6v-3H3v-3zM17 0h-3v3h3v3h3V0h-3zM17 17h-3v3h6v-6h-3v3z"/></g></g></symbol><symbol id="replay" viewBox="0 0 16 20"><title>&#x420;&#x435;&#x441;&#x443;&#x440;&#x441; 1</title><g data-name="&#x421;&#x43B;&#x43E;&#x439; 2"><path class="cls-1" d="M8 4V0L3 5l5 5V6a6 6 0 1 1-6 6H0a8 8 0 1 0 8-8z" data-name="Layer 1"/></g></symbol><symbol id="subtitles" viewBox="0 0 32 20"><title>&#x420;&#x435;&#x441;&#x443;&#x440;&#x441; 1</title><g id="&#x421;&#x43B;&#x43E;&#x439;_2" data-name="&#x421;&#x43B;&#x43E;&#x439; 2"><path class="cls-1" d="M29 0H3a3 3 0 0 0-3 3v14a3 3 0 0 0 3 3h26a3 3 0 0 0 3-3V3a3 3 0 0 0-3-3zM14.4 15.85a8.37 8.37 0 0 1-1.67.17 6.13 6.13 0 0 1-2-.32 4.38 4.38 0 0 1-1.65-1A5.18 5.18 0 0 1 8 12.79 8.19 8.19 0 0 1 7.55 10 7.62 7.62 0 0 1 8 7.15 5.12 5.12 0 0 1 9.25 5.3a4.46 4.46 0 0 1 1.67-1 5.76 5.76 0 0 1 1.86-.3 8.68 8.68 0 0 1 1.67.14 5.74 5.74 0 0 1 1.14.31l-.45 1.92a3.54 3.54 0 0 0-.9-.27A9 9 0 0 0 13 6a2.75 2.75 0 0 0-2.2 1 4.57 4.57 0 0 0-.84 3 6.33 6.33 0 0 0 .2 1.63 3.51 3.51 0 0 0 .6 1.26 2.75 2.75 0 0 0 1 .81 3.24 3.24 0 0 0 1.4.29 4.63 4.63 0 0 0 1.26-.15 3.62 3.62 0 0 0 .89-.38l.46 1.84a3.33 3.33 0 0 1-1.37.55zm8.7 0a8.4 8.4 0 0 1-1.68.17 6.12 6.12 0 0 1-2-.32 4.31 4.31 0 0 1-1.65-1 5.18 5.18 0 0 1-1.13-1.86 8.19 8.19 0 0 1-.39-2.84 7.62 7.62 0 0 1 .47-2.85 5.1 5.1 0 0 1 1.22-1.85 4.42 4.42 0 0 1 1.68-1 5.7 5.7 0 0 1 1.85-.3 8.87 8.87 0 0 1 1.68.14 5.44 5.44 0 0 1 1.13.31l-.44 1.92a3.62 3.62 0 0 0-.91-.27 8.78 8.78 0 0 0-1.26-.1 2.77 2.77 0 0 0-2.21 1 4.63 4.63 0 0 0-.83 3 6.33 6.33 0 0 0 .2 1.63 3.51 3.51 0 0 0 .6 1.26 2.75 2.75 0 0 0 1 .81 3.23 3.23 0 0 0 1.39.29 4.53 4.53 0 0 0 1.26-.15 3.69 3.69 0 0 0 .9-.38l.46 1.84a3.33 3.33 0 0 1-1.34.55z" id="Layer_1" data-name="Layer 1"/></g></symbol><symbol id="twitter" viewBox="0 0 17 15"><path d="M10.95.144c1.685-.496 2.984.27 3.577 1.179.673-.231 1.331-.481 2.011-.708a2.345 2.345 0 0 1-.857 1.768c.685.17 1.304-.491 1.304-.491-.169 1-1.006 1.788-1.563 2.024-.231 6.75-3.175 11.217-10.077 11.082h-.446c-.41 0-4.164-.46-4.898-1.887 2.271.196 3.893-.422 4.693-1.177-.96-.3-2.679-.477-2.979-2.95.349.106.564.228 1.19.119C1.705 8.247.374 7.53.448 5.33c.285.328 1.067.536 1.34.472C1.085 5.561-.182 2.442.894.85c1.818 1.854 3.735 3.606 7.152 3.773C8.254 2.33 9.183.793 10.95.144z"/></symbol><symbol id="youtube" viewBox="0 0 20 16"><path d="M17 0H3C1.35 0 0 1.35 0 3v10c0 1.65 1.35 3 3 3h14c1.65 0 3-1.35 3-3V3c0-1.65-1.35-3-3-3zM6.027 11.998V4.002L15.014 8l-8.987 3.998z"/></symbol></svg>