<?xml version="1.0" encoding="utf-8"?>
<!-- Generator: Adobe Illustrator 22.1.0, SVG Export Plug-In . SVG Version: 6.00 Build 0)  -->
<svg version="1.1" id="Layer_1" xmlns="http://www.w3.org/2000/svg" xmlns:xlink="http://www.w3.org/1999/xlink" x="0px" y="0px"
	 viewBox="0 0 186.6 96.4" style="enable-background:new 0 0 186.6 96.4;" xml:space="preserve">
<style type="text/css">
	.st0{fill:#81B3D3;}
	.st1{fill:#23A9E1;}
	.st2{fill:#FFFFFF;}
	.st3{fill:#491213;}
	.st4{fill:#DC6243;}
	.st5{fill:#F49774;}
	.st6{fill:#F4B1A4;}
</style>
<g id="Layer_2">
	<path class="st0" d="M186.6,0H0l80.5,90.5c7.1,7.9,18.6,7.9,25.7,0L186.6,0z"/>
	<g>
		<g>
			<polygon class="st1" points="43.2,0.7 92.8,59.1 142.1,1.1 			"/>
		</g>
		<g>
			<path class="st2" d="M122,17.3c-5.1,0-10.1,0.1-15.2,0.1C112.8,10.5,115.5,11.2,122,17.3L122,17.3z"/>
		</g>
		<g>
			<path class="st2" d="M80.8,22.7c8.9,0,17.8,0,26.7,0c-2-1.2-6.7-7.1-9.3-4.9C98,18,90.7,8.9,85.9,13.3c-4.2,3.8-6.1-0.5-10.9,2.5
				C69.7,19.4,78.2,21.5,80.8,22.7L80.8,22.7z"/>
		</g>
		<path class="st3" d="M93.1,0H42.2v22.5L92.8,84l0.3-0.4l50.7-60.4V0H93.1z M54.9,1.8h5.5V19l-5.5-6.5V1.8z M54.1,11.6l-5-5.9V1.8
			h5V11.6z M73.4,8.9l-5.7-7.1h5.7V8.9z M66.8,12.7L61.2,1.8h5.6V12.7z M61.1,3.4l5.5,10.7c-2.8,2.1-4.7,4-5.5,4.9V3.4z M67.6,2.9
			l5.6,6.9c-1.1,0.6-2.2,1.3-3.1,1.9c-0.9,0.6-1.7,1.2-2.5,1.8V2.9z M74.2,2.7L79,6.9c-1.7,0.7-3.3,1.5-4.8,2.3V2.7z M79.8,6.6
			l-5.4-4.8h6v4.6C80.1,6.4,80,6.5,79.8,6.6z M98.9,1.8h5l-5,2.4V1.8z M93.1,1.8h4.4l-4.4,2.1V1.8z M92.2,3.8l-4.2-2h4.2V3.8z
			 M86.7,4.3l-5.1-2.5h5.1V4.3z M81.1,2.4l4.7,2.3c-1.6,0.4-3.2,0.8-4.7,1.3V2.4z M87.5,2.4L90.9,4c-1.2,0.1-2.3,0.2-3.5,0.4V2.4z
			 M97.9,2.5v1.9c-1.1-0.2-2.2-0.3-3.4-0.4L97.9,2.5z M104.4,2.4v3.7c-1.5-0.5-3.1-1-4.8-1.4L104.4,2.4z M105.1,1.8h5.9l-5.4,4.8
			c-0.2-0.1-0.3-0.1-0.5-0.2L105.1,1.8L105.1,1.8z M118.7,1.8h5.6l-5.6,10.9V1.8z M112.1,1.8h5.7l-5.7,7V1.8z M111.3,2.7v6.5
			c-1.5-0.8-3.1-1.6-4.8-2.3L111.3,2.7z M117.9,2.9v10.5c-0.7-0.5-1.5-1-2.3-1.6c-1-0.7-2.2-1.4-3.4-2.1L117.9,2.9z M124.3,3.4v15.2
			c-1.1-1-2.9-2.7-5.5-4.6L124.3,3.4z M125.1,19.4V1.8h5.5v11.4L125.1,19.4C125.2,19.5,125.1,19.5,125.1,19.4z M131.4,1.8h5v4.7
			l-5,5.8V1.8z M48.4,1.8v2.9l-2.5-2.9H48.4z M61.2,20l0.1,0.1c0,0,3.6-3.9,9.2-7.6C75.8,9,83.8,4.9,92.8,5c8.9,0,17.1,4.2,22.3,7.7
			c5.6,3.7,9.3,7.5,9.4,7.6l-3.9,4.5c-6.9,0.9-11.9,6.1-18.6,5c-3.4-0.6-3.5-2.5-4.5-4.5c-0.7-1.5-1.9-1.3-3.5-1.9
			c-1.4-0.6-2.3-1.7-5.2-1.1c-2.5,0.6-2.8,4.5-6,4.3c-1.7-0.1-1.8-2.5-4.2-5.5c-6.3-7.6-12.2-6.5-16.2,0.5l30.3,35.9L61.2,20z
			 M137.1,5.5V1.8h3.2L137.1,5.5z"/>
		<g>
			<polygon class="st1" points="88.7,70.9 92.8,64.4 96.8,70.9 92.8,77.4 			"/>
		</g>
		<g>
			<g>
				<path class="st2" d="M65.5,32.3c0.5,0.6,0.9,1.3,0.8,2.1c-0.1,0.6-0.9,1.6-0.3,1.8c0.7-0.9,1.5-1.9,2.2-2.8
					c-0.6-0.2-5.4-5.8-5.4-6.5c-1.1,0.6-2.1,1.2-3.2,1.7c0.2,0.7,1.3,0,1.9,0c0.8,0.1,1.4,0.6,2,1.2c-1.7,1.4-5.9,5-6.4,5.1
					c-0.2,0-1.1-0.6-1.1-0.1c0,0.3,0.9,1,1,1.2c0.7,0.9,1.5,1.8,2.2,2.7c0.6-0.3-0.1-0.7,0.2-1.2C59.7,37.1,64.3,33.2,65.5,32.3
					L65.5,32.3z"/>
			</g>
			<g>
				<path class="st2" d="M60.2,25.3c0.4-0.1,0.6,0.4,1-0.1c-0.8-1-1.6-1.9-2.4-2.9c-0.4-0.4-0.8-0.9-0.7,0c0.1,0.6-6.1,5.7-6.5,5.8
					c-0.5,0.2-0.8-0.4-1.1,0.1c0.7,0.9,1.5,1.7,2.2,2.6c0.2,0.3,0.5,0.6,0.7,0.9c0.3,0.3,0.2-0.7,0.2-0.6c-0.1-0.5,0.5-0.9,0.9-1.2
					C56,28.6,59.8,25.3,60.2,25.3z"/>
			</g>
			<g>
				<path class="st2" d="M51.4,24.4c-1.8,0.5-3.7-0.2-4.2-2c-0.5-1.8,0.6-3.8,2.1-4.8c1.4-1,3.6-1,4.4,0.8c0.3,0.8,0.2,1.7-0.1,2.5
					c-0.2,0.5-0.6,1,0.1,1.3c0.9-1.1,1.7-2.2,2.6-3.3c-1.1-0.6-1.5-1.7-2.3-2.6c-0.9-1.1-2.1-2.1-3.5-2.3c-2.9-0.4-5.6,2.6-5.8,5.2
					c-0.1,1.5,0.4,2.8,1.2,4c0.8,1,1.9,1.6,2.4,2.8c0.3,0.1,2.7-1,3.3-1.3C51.5,24.6,51.5,24.5,51.4,24.4
					C50.7,24.6,51.4,24.4,51.4,24.4z"/>
			</g>
			<g>
				<path class="st2" d="M90.7,60.8c-1.2-0.8-4-4.7-4.6-5.3c-0.1-0.1-0.2-0.3-0.3-0.4c0,0-0.3,0.2-0.2,0.2c-0.2,0.1,0.1,0.6-0.1,0.9
					c-0.8,1.2-5.8,5-6,5.2c-0.6,0.4-1.2-0.2-1.5,0.3c0.7,0.9,2.8,3.5,3,3.6c0.5,0.1,0.1-0.8,0.2-1c0.1-0.4,2.6-2.4,3.5-3.2
					c0.3-0.3,0.7,0.4,0.9,0.7c0.3,0.5,0.5,1,0.3,1.6c-0.1,0.4-0.7,0.9-0.3,1.2c0.6-0.7,2.4-2.8,2.6-3c0.3-0.3-0.6,0-0.5-0.1
					c-0.4,0.2-0.7,0.2-1.1,0c-0.1-0.1-1.1-1.1-1-1.2c0.4-0.4,1-1,1.5-1.1c0.9-0.2,1.6,1.5,1.7,2.1c0.1,0.6,0.1,1.2-0.1,1.8
					c-0.1,0.4-0.5,0.7,0,0.9c0.7-1,1.4-1.9,2.1-2.9C91,60.9,90.8,60.8,90.7,60.8C90.6,60.7,90.9,60.8,90.7,60.8z"/>
			</g>
			<g>
				<path class="st2" d="M80.5,56.6c2.2-1.9,2.5-5.1,0.8-7.3c-1.9-2.5-5.4-3.1-7.8-1.1c-2.2,1.9-2.5,5-0.8,7.3
					C74.7,58.2,77.9,58.5,80.5,56.6C81.7,55.7,80.4,56.7,80.5,56.6z M80,51.9c-0.6,1.5-2.2,3.1-3.7,3.7c-1.8,0.7-3.1-0.8-2.4-2.6
					c0.7-1.5,2.2-3.1,3.7-3.7C79.5,48.6,80.7,50.2,80,51.9C79.6,52.8,80.1,51.7,80,51.9z"/>
			</g>
			<g>
				<path class="st2" d="M74.1,42c0.5,0.1,0.9,0.5,1.3,0c-0.7-0.9-1.5-1.8-2.2-2.6c-0.6,0.3,0,0.5-0.2,1c-0.2,0.4-2.6,0.8-3.2,0.9
					c0.2-0.6,0.9-2.6,1.2-2.8c0.5-0.4,0.9,0.4,1.3-0.1c-0.9-1.1-1.8-2.2-2.7-3.3c-0.3-0.4-0.6-1-1-0.7c0,0,0,1.5-0.1,1.7
					c-0.1,0.2-0.9,3.6-1.9,4.5c-0.5,0.4-2.2,1.9-2.7,2.1c-0.5,0.2-0.8-0.6-1.2,0c0.8,1,1.7,2,2.5,3c0.1,0.1,0.6,0.9,0.8,0.9
					c0.5,0.1,0.1-0.9,0.1-1.1c0.2-0.4,2.5-2.7,3.5-2.9C70.8,42.4,72.6,41.9,74.1,42C74.4,42.1,73.7,42,74.1,42z"/>
			</g>
		</g>
		<g>
			<path class="st4" d="M67.8,22.9c-4-0.2-2.4-4,0.4-4.8c2.6-0.8,8.1,1.7,9.8,3.4c-2.8,0.9-6.4,0.7-9.4,0.9
				C68.4,19.2,67.6,20.3,67.8,22.9L67.8,22.9z"/>
		</g>
		<g>
			<path class="st4" d="M77.3,35.4c-8.6-0.1-2.8-13.3,0.1-12.5C80.8,24,80.4,35.5,77.3,35.4L77.3,35.4z"/>
		</g>
		<g>
			<path class="st4" d="M83.4,31.1c-0.8,2.5-2.4,3-2.2-0.1c0.2-3.5,2.5-2.7,4.9-4c2-1.1,3.1-5.2,6.6-2.8c1.6,1.1,3.4,0.2,3.9,1.8
				c0-0.1-4.5,10.3-2,10.3c-5,0-2.8-5.9-0.9-9.9c-1.8,0.9-4.8,6.7-2.4,7.6c-1.3,1.7-5.2,3.9-7.2,2.3C82.6,35.2,83.4,33.1,83.4,31.1
				L83.4,31.1z"/>
		</g>
		<g>
			<path class="st4" d="M87.5,40.7c-3.5,1-8.1-1.2-2.5-2.3C88.5,37.7,92.2,39.1,87.5,40.7C87.6,40.7,87.4,40.7,87.5,40.7z"/>
		</g>
		<g>
			<path class="st4" d="M91.9,40.6c-0.7-1.7,0.6-3.6,2.7-2.2C96.4,39.6,93.7,41.5,91.9,40.6L91.9,40.6z"/>
		</g>
		<g>
			<path class="st4" d="M88.9,45.2c-2.4-0.7-10.5-0.6-5.2-2.8C85.4,41.8,93.9,42.6,88.9,45.2L88.9,45.2z"/>
		</g>
		<g>
			<path class="st4" d="M99.4,48.5c-1.4-1.2-2.9-1.3-4.2,0c-1.8-3.3-8.3-2.2-11.4-2.7C85.4,49.9,98.6,50.7,99.4,48.5L99.4,48.5z"/>
		</g>
		<g>
			<path class="st4" d="M97.5,51c-3.2-0.1-6.7-0.6-9.6,0.1c1.9,0.5,6.4,1.8,2.2,2.9c1.5,2.2,4,2,5.6,0.1c-0.7-0.3-1-0.7-1.6-1.1
				C95.7,52.7,97.3,51.8,97.5,51L97.5,51z"/>
		</g>
		<g>
			<path class="st4" d="M101.1,47.1c-5.3-3.1-4-5.4,0.4-7.6c2.3-1.1,7.3-5.2,9.4-3.9C107.6,39.5,104.3,43.3,101.1,47.1L101.1,47.1z"
				/>
		</g>
		<g>
			<path class="st5" d="M97.3,39.8c-4.5-4.6,6.7-4.2,8.5-5.8c1.3,0.4,10.8-8.3,13.1-7.7c-1.7,1.9-5.2,8.1-7.8,8.1
				c-2,0-4-0.3-5.5,1.1C103.4,37.6,99.7,38.6,97.3,39.8L97.3,39.8z"/>
		</g>
		<g>
			<path class="st6" d="M98.8,34.2c-2.5,1.3-4.8-3.9-0.5-3.4c2.8,0.3,5.7-0.2,8.3,0.2C104.6,33.3,101.9,34.6,98.8,34.2L98.8,34.2z"
				/>
		</g>
		<g>
			<g>
				<path class="st2" d="M111.4,52.5c0.2,0.6,0.3,1.3,0.2,2c-0.1,0.9-1,2.9-2.2,2.3c-1.2-0.6-2.2-1.7-3.2-2.6
					c0.8-0.9,1.5-1.7,2.9-1.3c0.4,0.1,0.7,0,0.3-0.3c-0.4-0.2-3.1-2-3.3-1.8c-0.3,0.3,0.5,0.9,0.2,1.5c-0.2,0.4-0.6,0.8-0.9,1.2
					c-0.7-0.6-1.9-1.3-1.1-2.3c0.5-0.7,1.3-1.2,2.1-1.3c0.6-0.1,1.8,0.4,2-0.2c-1.1-0.5-2.2-1-3.3-1.6c0.2,0.8-3.3,4.5-4.1,5.5
					c-0.1,0.1-0.7,0.6-0.7,0.8c0,0.4,0.6,0.1,0.7,0.1c0.5-0.2,6.8,5.1,7,5.5c0.1,0.3-0.2,0.6,0,0.7c0,0,0.2,0.2,0.3,0.2
					c0.4-0.5,4.5-6,5.4-6.2c-0.8-1.2-1.6-2.4-2.4-3.7C110.7,51.3,111.3,52,111.4,52.5z"/>
			</g>
			<g>
				<path class="st2" d="M105.2,59.2c-2.1-1.3-5.6,1.3-6.1,1.5c-1,0.5-1.8-0.5-1.3-1.5c0.5-0.8,1.4-1.2,2.3-1.3c0.3,0,1.3,0.2,1.5,0
					c0.1-0.2,0.2-0.2,0-0.3c-0.9-0.6-1.7-1.2-2.6-1.7c-0.2,1.1-1.4,1.7-2.1,2.4c-0.8,0.9-1.5,1.9-1.5,3.2c0,1.1,0.7,2.1,1.7,2.7
					c1.1,0.6,2.3,0.1,3.3-0.5c0.6-0.4,1.3-0.9,1.9-1.2c1-0.5,2.3-0.1,2,1.3c-0.3,1.1-1.4,2.1-2.4,2.3c-0.6,0.2-1.3,0.1-1.9-0.1
					c-0.4-0.1-1-0.7-1.2-0.1c1.2,0.8,2.3,1.7,3.5,2.5c0.1-0.8,0.5-1.1,1.1-1.6c0.7-0.6,1.4-1.3,2-2.1C106.6,63,107,60.6,105.2,59.2z
					"/>
			</g>
			<g>
				<path class="st2" d="M105.2,59.2C106.2,59.8,104.6,58.7,105.2,59.2L105.2,59.2z"/>
			</g>
			<g>
				<path class="st2" d="M134.5,21.9C134.5,21.9,134.5,21.9,134.5,21.9L134.5,21.9z"/>
			</g>
			<g>
				<path class="st2" d="M141.9,19.6c-0.7,0.7-8.4-2.3-9-2.8c-0.3-0.1-0.3-1.3-0.7-0.8c-0.4,0.5-0.8,1-1.2,1.5
					c-0.4,0.5-0.8,1-1.3,1.5c-0.3,0.3-0.5,0.5,0,0.7c0.8-0.4,5.4,7.3,5,8.5c-0.7,0.4-6.9-5.1-7.1-5.4c-0.1-0.1,0.3-1-0.2-0.9
					c-0.2,0-0.7,0.9-0.9,1.1c-0.3,0.4-0.6,0.7-0.9,1.1c0.3,0.5,0.5,0,1,0c0.4,0.1,1.8,1.3,2.2,1.7c-0.7,0-2.7,0.1-2.9,0.1
					c-0.9,0.1-0.4-0.7-1-0.9c-0.8,0.9-1.5,1.8-2.3,2.8c-0.4,0.5-0.9,1.1-1.3,1.6c-0.1,0.1,0,0,0,0.1c0.3,0.3,0.1,0.2,0.6,0
					c0.5-0.2,6.6,4.9,6.8,5.2c0.4,0.4-0.2,1,0.4,1.2c0.6-0.7,1.2-1.5,1.8-2.2c0.1-0.1,0.1-0.1,0-0.2c-0.4-0.4-0.5,0.2-1,0.2
					c-0.5-0.1-4.4-3.4-5.9-4.6c1.8-0.1,7.3-0.3,8.2-0.3c0.3,0,1.1,0.9,1.1,1.2c-0.1,0.4-0.5,0.6,0.1,0.8c0.5-0.6,1-1.1,1.5-1.7l0,0
					l0.2-0.3c0.1-0.1,0.1-0.1,0.2-0.3l0.2-0.2c0.4-0.5,1.8-2,1.6-2.1c-0.5-0.4-0.7,0.5-1.3-0.1c-0.3-0.2-1.2-1.8-1.4-2.2
					c-0.3-0.4,0.6-0.9,1-1.1c0.8-0.5,3.2-1.2,3.5,0.3c0,0.3-0.3,0.5-0.1,0.7c0,0,0.2,0.2,0.3,0.2c0.2-0.2,2.4-2.8,3.3-4
					C142.1,19.8,142,19.7,141.9,19.6z M134.5,21.8C134.6,21.8,134.7,21.7,134.5,21.8C134.5,21.8,134.5,21.8,134.5,21.8
					C134.5,21.8,134.5,21.8,134.5,21.8c-0.3,0.2-0.7,0.5-1,0.8c-0.5-0.9-1-1.8-1.6-2.7c1.2,0.5,2.4,1,3.5,1.5
					C135.2,21.5,134.9,21.6,134.5,21.8z"/>
			</g>
			<g>
				<path class="st2" d="M124.8,33c-2.4-2-5.6-1.4-7.6,0.8c-1.9,2.3-1.7,5.7,0.6,7.6c2.3,1.9,5.7,1.4,7.6-0.8
					C127.3,38.3,127.2,34.9,124.8,33z M124.5,39.6C124.5,39.6,124.5,39.7,124.5,39.6c-1.3,1.3-3.4,0.1-4.5-0.7
					c-1.1-0.8-3.1-2.6-1.9-4.1c1.1-1.3,3.1-0.2,4.2,0.5c1.2,0.8,3.4,2.6,2.3,4.2C124.7,39.4,124.7,39.4,124.5,39.6z"/>
			</g>
			<g>
				<path class="st2" d="M124.8,33C126,34,124.5,32.8,124.8,33L124.8,33z"/>
			</g>
			<g>
				<path class="st2" d="M124.5,39.7C124.5,39.6,124.5,39.6,124.5,39.7c0.1-0.1,0.1-0.1,0.1-0.1C124.5,39.6,124.5,39.7,124.5,39.7z"
					/>
			</g>
			<g>
				<path class="st2" d="M118.2,42.1C118.3,42.2,118.5,42.4,118.2,42.1c-2.9-2.2-6.3-1.6-8.5,1.1c-1,1.2-2,2.4-3,3.6
					c0.4,0.5,0.8-0.1,1.3,0.2c0.4,0.3,6.2,5.1,6.3,5.4c0.2,0.5-0.3,0.5,0.1,0.9c0.2,0.1,4.5-5.2,4.9-6.2
					C120.2,45.3,119.6,43.4,118.2,42.1z M116.9,48.9c-0.2,0.3,0,0.1-0.7,0.7c-0.3,0.3-6.4-4.7-6.2-4.9c0.8-0.9,2.6-1.6,3.6-1.3
					C115.8,43.9,118.8,46.6,116.9,48.9z"/>
			</g>
		</g>
	</g>
</g>
</svg>
