<?xml version="1.0" encoding="UTF-8" standalone="no"?>
<!-- Created with Inkscape (http://www.inkscape.org/) -->

<svg
   xmlns:dc="http://purl.org/dc/elements/1.1/"
   xmlns:cc="http://creativecommons.org/ns#"
   xmlns:rdf="http://www.w3.org/1999/02/22-rdf-syntax-ns#"
   xmlns:svg="http://www.w3.org/2000/svg"
   xmlns="http://www.w3.org/2000/svg"
   xmlns:sodipodi="http://sodipodi.sourceforge.net/DTD/sodipodi-0.dtd"
   xmlns:inkscape="http://www.inkscape.org/namespaces/inkscape"
   version="1.1"
   id="svg3713"
   xml:space="preserve"
   width="135.55733"
   height="111.97853"
   viewBox="0 0 135.55733 111.97853"
   sodipodi:docname="logo-mobile.svg"
   inkscape:version="0.92.4 (5da689c313, 2019-01-14)"><metadata
     id="metadata3719"><rdf:RDF><cc:Work
         rdf:about=""><dc:format>image/svg+xml</dc:format><dc:type
           rdf:resource="http://purl.org/dc/dcmitype/StillImage" /><dc:title></dc:title></cc:Work></rdf:RDF></metadata><defs
     id="defs3717"><clipPath
       clipPathUnits="userSpaceOnUse"
       id="clipPath3737"><path
         d="M 0,83.984 H 101.668 V 0 H 0 Z"
         id="path3735"
         inkscape:connector-curvature="0" /></clipPath></defs><sodipodi:namedview
     pagecolor="#ffffff"
     bordercolor="#666666"
     borderopacity="1"
     objecttolerance="10"
     gridtolerance="10"
     guidetolerance="10"
     inkscape:pageopacity="0"
     inkscape:pageshadow="2"
     inkscape:window-width="1366"
     inkscape:window-height="706"
     id="namedview3715"
     showgrid="false"
     inkscape:zoom="4.8134227"
     inkscape:cx="67.778664"
     inkscape:cy="55.989265"
     inkscape:window-x="-8"
     inkscape:window-y="-8"
     inkscape:window-maximized="1"
     inkscape:current-layer="g3721" /><g
     id="g3721"
     inkscape:groupmode="layer"
     inkscape:label="logotyle-mobile"
     transform="matrix(1.3333333,0,0,-1.3333333,0,111.97853)"><g
       id="g3723"
       transform="translate(0,83.9835)"><path
         d="M 0,0 50.581,-59.053 101.668,0 Z"
         style="fill:#23a9e1;fill-opacity:1;fill-rule:nonzero;stroke:none"
         id="path3725"
         inkscape:connector-curvature="0" /></g><g
       id="g3727"
       transform="translate(0,83.9835)"><path
         d="m 0,0 v -22.462 l 50.582,-61.522 0.338,0.424 50.748,60.394 V 0 Z M 3.708,-1.776 H 50.919 98.126 L 50.919,-57.05 50.581,-57.461 Z"
         style="fill:#491213;fill-opacity:1;fill-rule:nonzero;stroke:none"
         id="path3729"
         inkscape:connector-curvature="0" /></g><g
       id="g3731"><g
         id="g3733"
         clip-path="url(#clipPath3737)"><g
           id="g3739"
           transform="translate(50.5811,26.5234)"><path
             d="M 0,0 0.338,0.41 27.914,32.697 C 21.002,31.748 16.051,26.621 9.31,27.742 5.914,28.305 5.812,30.255 4.841,32.197 4.095,33.69 2.902,33.5 1.354,34.107 c -1.443,0.564 -2.277,1.738 -5.162,1.06 -2.528,-0.591 -2.808,-4.517 -5.953,-4.292 -1.688,0.121 -1.81,2.498 -4.244,5.539 -6.301,7.571 -12.157,6.523 -16.245,-0.475 z"
             style="fill:#491213;fill-opacity:1;fill-rule:nonzero;stroke:none"
             id="path3741"
             inkscape:connector-curvature="0" /></g><g
           id="g3743"
           transform="translate(23.2793,51.7358)"><path
             d="m 0,0 c 0.513,-0.618 0.892,-1.284 0.806,-2.116 -0.06,-0.579 -0.937,-1.55 -0.271,-1.847 0.748,0.944 1.496,1.89 2.242,2.834 -0.601,0.151 -5.365,5.849 -5.441,6.473 -1.053,-0.578 -2.107,-1.156 -3.159,-1.735 0.164,-0.66 1.295,-0.005 1.854,-0.046 0.828,-0.059 1.424,-0.559 1.953,-1.151 -1.729,-1.449 -5.931,-5.017 -6.375,-5.09 -0.226,-0.037 -1.088,0.601 -1.101,0.055 -0.007,-0.262 0.852,-1.014 1.014,-1.209 0.744,-0.885 1.486,-1.771 2.229,-2.652 0.619,0.281 -0.108,0.73 0.205,1.242 C -5.81,-4.867 -1.14,-0.976 0,0"
             style="fill:#ffffff;fill-opacity:1;fill-rule:nonzero;stroke:none"
             id="path3745"
             inkscape:connector-curvature="0" /></g><g
           id="g3747"
           transform="translate(18.0068,58.7153)"><path
             d="M 0,0 C 0.442,0.095 0.623,-0.434 0.957,0.056 0.143,1.029 -0.676,2.001 -1.49,2.974 -1.862,3.415 -2.331,3.89 -2.197,2.955 c 0.089,-0.63 -6.114,-5.664 -6.493,-5.819 -0.479,-0.198 -0.758,0.416 -1.109,-0.098 0.731,-0.869 1.461,-1.738 2.193,-2.607 0.246,-0.293 0.477,-0.613 0.747,-0.883 0.338,-0.339 0.208,0.672 0.224,0.586 -0.092,0.512 0.527,0.947 0.855,1.227 C -4.235,-3.278 -0.383,-0.051 0,0"
             style="fill:#ffffff;fill-opacity:1;fill-rule:nonzero;stroke:none"
             id="path3749"
             inkscape:connector-curvature="0" /></g><g
           id="g3751"
           transform="translate(9.2354,59.6323)"><path
             d="M 0,0 C -1.768,-0.523 -3.649,0.164 -4.207,2.042 -4.75,3.877 -3.593,5.799 -2.136,6.844 -0.697,7.875 1.453,7.813 2.237,6.006 2.583,5.206 2.395,4.299 2.143,3.503 1.982,2.997 1.545,2.503 2.199,2.215 3.059,3.311 3.92,4.404 4.78,5.5 3.725,6.133 3.262,7.184 2.479,8.096 c -0.881,1.07 -2.063,2.078 -3.481,2.283 -2.87,0.406 -5.574,-2.556 -5.795,-5.244 -0.137,-1.457 0.374,-2.849 1.246,-4.002 0.75,-0.994 1.867,-1.623 2.436,-2.754 0.261,-0.095 2.704,1.033 3.285,1.256 C 0.118,-0.255 0.081,-0.091 0,0 -0.761,-0.226 0,0 0,0"
             style="fill:#ffffff;fill-opacity:1;fill-rule:nonzero;stroke:none"
             id="path3753"
             inkscape:connector-curvature="0" /></g><g
           id="g3755"
           transform="translate(48.5361,23.2246)"><path
             d="M 0,0 C -1.15,0.768 -4.025,4.689 -4.574,5.34 -4.682,5.471 -4.794,5.602 -4.902,5.732 -4.914,5.748 -5.186,5.508 -5.148,5.543 -5.322,5.396 -5.014,4.969 -5.201,4.678 c -0.793,-1.239 -5.759,-4.981 -6.017,-5.162 -0.554,-0.385 -1.164,0.158 -1.487,-0.315 0.719,-0.855 2.778,-3.543 3.019,-3.582 0.48,-0.078 0.147,0.815 0.211,1 0.123,0.369 2.633,2.445 3.549,3.211 0.336,0.281 0.689,-0.426 0.888,-0.723 0.327,-0.484 0.475,-1 0.299,-1.568 -0.117,-0.371 -0.717,-0.92 -0.25,-1.174 0.619,0.723 2.36,2.754 2.612,3.049 0.253,0.293 -0.565,0.037 -0.469,0.086 -0.371,-0.189 -0.718,-0.234 -1.063,0.029 -0.097,0.069 -1.088,1.082 -0.99,1.166 0.431,0.36 0.959,0.963 1.517,1.1 0.863,0.213 1.582,-1.516 1.709,-2.129 0.121,-0.578 0.105,-1.186 -0.075,-1.75 -0.123,-0.387 -0.486,-0.697 0.018,-0.93 0.712,0.973 1.423,1.944 2.132,2.92 C 0.254,-0.104 0.12,-0.072 0,0 -0.128,0.084 0.139,-0.07 0,0"
             style="fill:#ffffff;fill-opacity:1;fill-rule:nonzero;stroke:none"
             id="path3757"
             inkscape:connector-curvature="0" /></g><g
           id="g3759"
           transform="translate(37.8467,32.1074)"><path
             d="m 0,0 c -0.646,-1.51 -2.201,-3.063 -3.732,-3.666 -1.818,-0.715 -3.1,0.826 -2.359,2.553 0.65,1.515 2.203,3.056 3.736,3.666 C -0.504,3.287 0.711,1.707 0,0 -0.381,-0.889 0.07,0.17 0,0 m 0.465,-4.752 c 2.205,1.856 2.482,5.053 0.77,7.338 -1.867,2.49 -5.371,3.097 -7.805,1.052 -2.203,-1.853 -2.488,-5.046 -0.758,-7.324 1.99,-2.621 5.199,-2.918 7.793,-1.066 1.156,0.975 -0.1,-0.07 0,0"
             style="fill:#ffffff;fill-opacity:1;fill-rule:nonzero;stroke:none"
             id="path3761"
             inkscape:connector-curvature="0" /></g><g
           id="g3763"
           transform="translate(31.8672,41.9634)"><path
             d="m 0,0 c 0.476,-0.062 0.927,-0.551 1.269,-0.043 -0.741,0.879 -1.483,1.759 -2.228,2.638 -0.596,-0.269 0.048,-0.55 -0.194,-0.972 -0.244,-0.426 -2.56,-0.78 -3.176,-0.89 0.225,0.644 0.895,2.616 1.157,2.835 0.543,0.445 0.884,-0.432 1.283,0.141 -0.916,1.084 -1.83,2.17 -2.744,3.253 -0.31,0.366 -0.558,1.028 -0.979,0.68 C -5.573,7.673 -5.606,6.169 -5.7,5.91 -5.786,5.675 -6.637,2.271 -7.627,1.438 -8.12,1.024 -9.864,-0.495 -10.329,-0.657 c -0.541,-0.189 -0.824,0.597 -1.22,0.037 0.83,-0.986 1.66,-1.971 2.49,-2.957 0.125,-0.149 0.603,-0.863 0.768,-0.893 0.521,-0.095 0.06,0.893 0.113,1.086 0.151,0.43 2.5,2.719 3.496,2.858 C -3.22,-0.319 -1.481,0.179 0,0 0.339,-0.043 -0.351,0.043 0,0"
             style="fill:#ffffff;fill-opacity:1;fill-rule:nonzero;stroke:none"
             id="path3765"
             inkscape:connector-curvature="0" /></g><g
           id="g3767"
           transform="translate(69.2061,31.5352)"><path
             d="m 0,0 c 0.19,-0.648 0.299,-1.332 0.215,-2.01 -0.108,-0.873 -0.98,-2.924 -2.174,-2.34 -1.168,0.575 -2.193,1.729 -3.188,2.553 0.802,0.936 1.507,1.748 2.854,1.295 0.37,-0.123 0.689,0.035 0.299,0.262 -0.404,0.234 -3.113,1.965 -3.261,1.799 -0.27,-0.311 0.527,-0.868 0.222,-1.473 -0.23,-0.447 -0.61,-0.834 -0.933,-1.219 -0.721,0.608 -1.924,1.252 -1.056,2.256 0.541,0.66 1.25,1.172 2.097,1.342 0.565,0.113 1.841,-0.389 2.007,0.224 -1.089,0.522 -2.173,1.045 -3.259,1.564 0.177,-0.798 -3.349,-4.523 -4.131,-5.462 -0.112,-0.139 -0.658,-0.609 -0.664,-0.799 -0.009,-0.428 0.621,-0.096 0.657,-0.084 0.486,0.182 6.816,-5.107 6.972,-5.471 0.101,-0.281 -0.22,-0.574 -0.028,-0.73 -0.011,0.01 0.228,-0.217 0.254,-0.186 0.39,0.469 4.52,5.977 5.373,6.217 C 1.463,-1.047 0.668,0.17 -0.111,1.391 -0.701,1.133 -0.132,0.441 0,0"
             style="fill:#ffffff;fill-opacity:1;fill-rule:nonzero;stroke:none"
             id="path3769"
             inkscape:connector-curvature="0" /></g><g
           id="g3771"
           transform="translate(63.0439,24.832)"><path
             d="m 0,0 c -2.076,1.34 -5.597,-1.279 -6.125,-1.531 -1.039,-0.49 -1.789,0.543 -1.25,1.502 0.469,0.83 1.393,1.234 2.311,1.289 0.275,0.017 1.35,-0.197 1.459,-0.026 0.128,0.204 0.227,0.223 0.041,0.348 C -4.419,2.16 -5.275,2.736 -6.13,3.314 -6.307,2.258 -7.516,1.586 -8.206,0.875 -9.028,0.02 -9.727,-1.057 -9.727,-2.281 c 0,-1.135 0.679,-2.143 1.677,-2.66 1.137,-0.592 2.318,-0.118 3.323,0.509 0.627,0.393 1.254,0.858 1.924,1.172 0.996,0.467 2.306,0.063 1.953,-1.269 -0.28,-1.075 -1.351,-2.063 -2.403,-2.34 -0.617,-0.164 -1.27,-0.11 -1.873,0.09 -0.433,0.14 -0.992,0.734 -1.229,0.111 1.16,-0.848 2.32,-1.691 3.48,-2.537 0.104,0.76 0.522,1.09 1.086,1.562 0.735,0.647 1.438,1.319 1.994,2.129 C 1.364,-3.82 1.744,-1.451 0,0"
             style="fill:#ffffff;fill-opacity:1;fill-rule:nonzero;stroke:none"
             id="path3773"
             inkscape:connector-curvature="0" /></g><g
           id="g3775"
           transform="translate(63.0439,24.832)"><path
             d="M 0,0 C 0.926,-0.598 -0.59,0.494 0,0"
             style="fill:#ffffff;fill-opacity:1;fill-rule:nonzero;stroke:none"
             id="path3777"
             inkscape:connector-curvature="0" /></g><g
           id="g3779"
           transform="translate(92.2773,62.146)"><path
             d="M 0,0 C -0.007,-0.004 -0.007,-0.004 0,0"
             style="fill:#ffffff;fill-opacity:1;fill-rule:nonzero;stroke:none"
             id="path3781"
             inkscape:connector-curvature="0" /></g><g
           id="g3783"
           transform="translate(92.3613,62.1997)"><path
             d="m 0,0 c 0.077,0.049 0.153,0.098 0,0 -0.051,-0.032 -0.073,-0.048 -0.084,-0.054 0.015,0.008 0.047,0.03 0.082,0.051 C -0.348,-0.222 -0.67,-0.476 -0.961,-0.763 -1.481,0.134 -2.004,1.032 -2.524,1.93 -1.347,1.438 -0.171,0.944 1,0.448 0.646,0.351 0.31,0.196 0,0 M 7.373,2.155 C 6.645,1.427 -1.047,4.497 -1.608,4.92 -1.897,5.036 -1.907,6.241 -2.313,5.753 -2.716,5.265 -3.123,4.776 -3.528,4.29 -3.946,3.784 -4.366,3.28 -4.784,2.776 -5.045,2.463 -5.321,2.319 -4.823,2.057 c 0.838,0.419 5.418,-7.346 5.008,-8.461 -0.726,-0.376 -6.914,5.057 -7.081,5.415 -0.052,0.146 0.273,1.021 -0.21,0.945 -0.23,-0.036 -0.745,-0.896 -0.89,-1.072 -0.297,-0.358 -0.592,-0.715 -0.889,-1.072 0.332,-0.485 0.516,0.021 0.959,-0.042 0.383,-0.078 1.844,-1.332 2.24,-1.664 -0.725,-0.027 -2.686,-0.131 -2.934,-0.113 -0.903,-0.112 -0.422,0.662 -1.016,0.931 -0.76,-0.922 -1.519,-1.843 -2.277,-2.765 -0.441,-0.535 -0.885,-1.071 -1.325,-1.606 -0.054,-0.066 -0.047,-0.032 0.05,-0.113 0.331,-0.272 0.104,-0.168 0.568,-0.005 0.507,0.177 6.559,-4.931 6.775,-5.19 0.377,-0.45 -0.154,-0.975 0.412,-1.221 0.6,0.728 1.198,1.457 1.797,2.184 0.092,0.109 0.141,0.1 0.022,0.197 -0.429,0.354 -0.478,-0.211 -1.002,-0.153 -0.533,0.089 -4.396,3.368 -5.896,4.61 1.821,0.068 7.291,0.271 8.198,0.304 0.3,0.011 1.14,-0.896 1.067,-1.216 -0.079,-0.379 -0.463,-0.558 0.056,-0.795 0.478,0.576 0.983,1.15 1.455,1.735 l 0.228,0.282 c 0.076,0.052 0.146,0.145 0.209,0.265 l 0.168,0.21 c 0.426,0.486 1.801,2.006 1.635,2.151 -0.461,0.4 -0.684,-0.466 -1.297,0.054 -0.348,0.249 -1.223,1.788 -1.442,2.162 -0.265,0.449 0.606,0.897 0.963,1.119 0.776,0.481 3.248,1.182 3.481,-0.349 C 4.25,-1.474 3.938,-1.765 4.125,-1.919 4.17,-1.956 4.33,-2.161 4.396,-2.082 4.56,-1.886 6.756,0.761 7.696,1.887 7.601,1.969 7.491,2.11 7.373,2.155"
             style="fill:#ffffff;fill-opacity:1;fill-rule:nonzero;stroke:none"
             id="path3785"
             inkscape:connector-curvature="0" /></g><g
           id="g3787"
           transform="translate(82.335,44.3745)"><path
             d="m 0,0 c -0.019,-0.02 -0.023,-0.025 -0.025,-0.025 -1.232,-1.293 -3.357,-0.098 -4.506,0.73 -1.146,0.828 -3.11,2.568 -1.856,4.104 1.058,1.287 3.125,0.231 4.192,-0.482 C -0.996,3.523 1.217,1.73 0.08,0.111 0.153,0.201 0.207,0.257 0,0 M 0.28,6.613 C -2.095,8.593 -5.349,8.018 -7.306,5.782 -9.207,3.47 -9.017,0.118 -6.7,-1.833 -4.36,-3.759 -1.03,-3.271 0.872,-0.986 2.771,1.316 2.641,4.682 0.28,6.613"
             style="fill:#ffffff;fill-opacity:1;fill-rule:nonzero;stroke:none"
             id="path3789"
             inkscape:connector-curvature="0" /></g><g
           id="g3791"
           transform="translate(82.6152,50.9878)"><path
             d="M 0,0 C 1.173,-0.959 -0.252,0.212 0,0"
             style="fill:#ffffff;fill-opacity:1;fill-rule:nonzero;stroke:none"
             id="path3793"
             inkscape:connector-curvature="0" /></g><g
           id="g3795"
           transform="translate(82.3076,44.3472)"><path
             d="M 0,0 C 0.01,0.01 0.018,0.02 0.025,0.026 0.054,0.063 0.082,0.1 0.105,0.137 0.056,0.075 -0.004,0 0,0"
             style="fill:#ffffff;fill-opacity:1;fill-rule:nonzero;stroke:none"
             id="path3797"
             inkscape:connector-curvature="0" /></g><g
           id="g3799"
           transform="translate(74.7061,35.1113)"><path
             d="M 0,0 C -0.24,-0.297 -0.043,-0.055 -0.664,-0.65 -0.972,-0.943 -7.103,4.025 -6.855,4.292 -6.021,5.21 -4.289,5.849 -3.279,5.591 -1.091,5.031 1.934,2.33 0,0 M 1.317,6.753 C 1.429,6.66 1.591,6.529 1.256,6.81 -1.58,8.937 -4.938,8.314 -7.146,5.654 -8.135,4.465 -9.123,3.275 -10.107,2.087 c 0.351,-0.511 0.763,0.118 1.273,-0.175 0.436,-0.25 6.243,-5.101 6.338,-5.365 0.164,-0.459 -0.254,-0.549 0.144,-0.875 0.172,-0.145 4.538,5.244 4.937,6.189 0.688,1.754 0.138,3.678 -1.268,4.892"
             style="fill:#ffffff;fill-opacity:1;fill-rule:nonzero;stroke:none"
             id="path3801"
             inkscape:connector-curvature="0" /></g><g
           id="g3803"
           transform="translate(50.5801,26.5068)"><path
             d="M 0,0 0.339,0.409 27.915,32.697 C 21.002,31.748 16.051,26.62 9.312,27.741 5.915,28.305 5.813,30.255 4.842,32.197 4.096,33.69 2.905,33.5 1.355,34.107 c -1.442,0.565 -2.277,1.738 -5.162,1.061 -2.528,-0.593 -2.807,-4.518 -5.952,-4.293 -1.689,0.121 -1.811,2.497 -4.244,5.539 -6.302,7.571 -12.158,6.523 -16.247,-0.475 z"
             style="fill:#491213;fill-opacity:1;fill-rule:nonzero;stroke:none"
             id="path3805"
             inkscape:connector-curvature="0" /></g><g
           id="g3807"
           transform="translate(46.5605,13.0684)"><path
             d="M 0,0 4.02,6.5 8.023,0 4.02,-6.515 Z"
             style="fill:#23a9e1;fill-opacity:1;fill-rule:nonzero;stroke:none"
             id="path3809"
             inkscape:connector-curvature="0" /></g><g
           id="g3811"
           transform="translate(23.2793,51.7188)"><path
             d="M 0,0 C 0.513,-0.618 0.891,-1.284 0.806,-2.116 0.747,-2.695 -0.13,-3.666 0.536,-3.962 1.283,-3.017 2.031,-2.073 2.778,-1.128 2.176,-0.977 -2.587,4.72 -2.664,5.344 -3.717,4.766 -4.771,4.188 -5.823,3.61 c 0.164,-0.661 1.294,-0.005 1.854,-0.046 0.828,-0.06 1.425,-0.56 1.953,-1.152 -1.728,-1.449 -5.931,-5.017 -6.374,-5.09 -0.226,-0.036 -1.089,0.601 -1.101,0.056 -0.006,-0.262 0.852,-1.014 1.014,-1.21 0.744,-0.884 1.486,-1.769 2.23,-2.653 0.619,0.282 -0.11,0.732 0.205,1.243 C -5.811,-4.868 -1.141,-0.975 0,0"
             style="fill:#ffffff;fill-opacity:1;fill-rule:nonzero;stroke:none"
             id="path3813"
             inkscape:connector-curvature="0" /></g><g
           id="g3815"
           transform="translate(18.0059,58.6987)"><path
             d="M 0,0 C 0.443,0.095 0.624,-0.434 0.958,0.056 0.143,1.029 -0.675,2.001 -1.49,2.973 -1.861,3.415 -2.331,3.889 -2.196,2.955 c 0.089,-0.63 -6.114,-5.664 -6.493,-5.82 -0.48,-0.197 -0.758,0.417 -1.11,-0.097 0.732,-0.869 1.461,-1.739 2.194,-2.608 0.246,-0.292 0.476,-0.612 0.747,-0.882 0.338,-0.339 0.208,0.672 0.223,0.585 -0.091,0.513 0.528,0.948 0.856,1.228 C -4.234,-3.278 -0.382,-0.051 0,0"
             style="fill:#ffffff;fill-opacity:1;fill-rule:nonzero;stroke:none"
             id="path3817"
             inkscape:connector-curvature="0" /></g><g
           id="g3819"
           transform="translate(9.2354,59.6157)"><path
             d="M 0,0 C -1.768,-0.523 -3.65,0.164 -4.207,2.042 -4.75,3.877 -3.593,5.799 -2.136,6.843 -0.697,7.875 1.453,7.813 2.237,6.005 2.583,5.206 2.395,4.299 2.143,3.503 1.982,2.997 1.546,2.503 2.199,2.214 3.059,3.31 3.92,4.404 4.78,5.5 3.725,6.133 3.262,7.183 2.479,8.095 1.598,9.166 0.416,10.174 -1.002,10.379 -3.872,10.785 -6.576,7.823 -6.797,5.134 -6.934,3.677 -6.423,2.286 -5.551,1.133 c 0.75,-0.994 1.867,-1.623 2.435,-2.754 0.262,-0.095 2.705,1.033 3.286,1.255 C 0.118,-0.255 0.081,-0.091 0,0 -0.761,-0.226 0,0 0,0"
             style="fill:#ffffff;fill-opacity:1;fill-rule:nonzero;stroke:none"
             id="path3821"
             inkscape:connector-curvature="0" /></g><g
           id="g3823"
           transform="translate(48.5352,23.207)"><path
             d="M 0,0 C -1.15,0.768 -4.025,4.689 -4.573,5.341 -4.681,5.471 -4.792,5.602 -4.902,5.732 -4.913,5.747 -5.186,5.508 -5.148,5.542 -5.321,5.396 -5.014,4.969 -5.2,4.678 c -0.793,-1.24 -5.758,-4.983 -6.016,-5.163 -0.555,-0.384 -1.164,0.159 -1.489,-0.316 0.719,-0.854 2.78,-3.543 3.019,-3.582 0.479,-0.078 0.148,0.815 0.211,1 0.123,0.369 2.633,2.445 3.549,3.211 0.336,0.281 0.688,-0.426 0.888,-0.723 0.327,-0.484 0.475,-1 0.298,-1.568 -0.116,-0.37 -0.717,-0.92 -0.25,-1.174 0.619,0.723 2.361,2.754 2.613,3.049 0.252,0.293 -0.566,0.037 -0.469,0.087 -0.37,-0.19 -0.718,-0.235 -1.063,0.028 -0.096,0.071 -1.089,1.082 -0.99,1.166 0.431,0.361 0.959,0.963 1.517,1.1 0.862,0.213 1.582,-1.516 1.709,-2.129 0.121,-0.578 0.104,-1.185 -0.076,-1.75 -0.124,-0.387 -0.487,-0.696 0.018,-0.93 0.712,0.974 1.422,1.946 2.131,2.92 C 0.254,-0.104 0.122,-0.071 0,0 -0.127,0.085 0.139,-0.07 0,0"
             style="fill:#ffffff;fill-opacity:1;fill-rule:nonzero;stroke:none"
             id="path3825"
             inkscape:connector-curvature="0" /></g><g
           id="g3827"
           transform="translate(37.8467,32.0908)"><path
             d="m 0,0 c -0.647,-1.51 -2.201,-3.063 -3.732,-3.667 -1.819,-0.715 -3.1,0.827 -2.361,2.553 0.651,1.515 2.203,3.056 3.738,3.666 C -0.504,3.287 0.711,1.706 0,0 -0.382,-0.89 0.07,0.169 0,0 M 0.465,-4.753 C 2.67,-2.897 2.946,0.3 1.233,2.586 -0.634,5.075 -4.138,5.682 -6.57,3.638 -8.774,1.784 -9.06,-1.409 -7.328,-3.687 c 1.99,-2.621 5.198,-2.917 7.793,-1.066 1.155,0.975 -0.1,-0.07 0,0"
             style="fill:#ffffff;fill-opacity:1;fill-rule:nonzero;stroke:none"
             id="path3829"
             inkscape:connector-curvature="0" /></g><g
           id="g3831"
           transform="translate(31.8672,41.9468)"><path
             d="M 0,0 C 0.475,-0.06 0.926,-0.55 1.269,-0.042 0.527,0.837 -0.215,1.716 -0.959,2.595 -1.554,2.326 -0.912,2.046 -1.153,1.624 -1.397,1.197 -3.713,0.843 -4.329,0.734 c 0.224,0.644 0.895,2.615 1.157,2.835 0.544,0.445 0.883,-0.432 1.283,0.141 -0.915,1.084 -1.829,2.169 -2.743,3.253 -0.31,0.366 -0.559,1.028 -0.98,0.68 C -5.574,7.674 -5.606,6.171 -5.701,5.91 -5.787,5.674 -6.637,2.272 -7.627,1.44 -8.12,1.026 -9.864,-0.494 -10.329,-0.657 c -0.541,-0.189 -0.825,0.598 -1.22,0.038 0.83,-0.986 1.661,-1.971 2.491,-2.957 0.125,-0.148 0.602,-0.863 0.767,-0.893 0.521,-0.094 0.06,0.893 0.113,1.086 0.151,0.431 2.5,2.719 3.497,2.859 C -3.22,-0.319 -1.481,0.178 0,0 0.339,-0.042 -0.352,0.043 0,0"
             style="fill:#ffffff;fill-opacity:1;fill-rule:nonzero;stroke:none"
             id="path3833"
             inkscape:connector-curvature="0" /></g><g
           id="g3835"
           transform="translate(25.6074,61.1099)"><path
             d="M 0,0 C -4.043,0.167 -2.352,3.954 0.395,4.808 3.006,5.621 8.483,3.091 10.237,1.41 7.455,0.555 3.852,0.678 0.791,0.536 0.564,3.656 -0.167,2.568 0,0"
             style="fill:#dc6243;fill-opacity:1;fill-rule:nonzero;stroke:none"
             id="path3837"
             inkscape:connector-curvature="0" /></g><g
           id="g3839"
           transform="translate(26.6221,56.2598)"><path
             d="M 0,0 C -2.04,1.579 -1.396,5.266 1.763,4.146 5.769,2.062 0.907,0.907 0,0 0,0 0.042,0.042 0,0"
             style="fill:#dc6243;fill-opacity:1;fill-rule:nonzero;stroke:none"
             id="path3841"
             inkscape:connector-curvature="0" /></g><g
           id="g3843"
           transform="translate(35.1104,48.561)"><path
             d="M 0,0 C -8.62,0.071 -2.792,13.322 0.141,12.521 3.514,11.448 3.136,-0.101 0,0"
             style="fill:#dc6243;fill-opacity:1;fill-rule:nonzero;stroke:none"
             id="path3845"
             inkscape:connector-curvature="0" /></g><g
           id="g3847"
           transform="translate(41.2158,52.8901)"><path
             d="M 0,0 C -0.84,-2.501 -2.36,-2.968 -2.191,0.07 -1.998,3.573 0.287,2.732 2.738,4.074 4.778,5.193 5.877,9.288 9.379,6.839 10.941,5.746 12.731,6.66 13.23,5.006 13.205,5.09 8.686,-5.302 11.199,-5.302 6.238,-5.302 8.427,0.62 10.325,4.597 8.479,3.712 5.483,-2.091 7.943,-3.046 6.662,-4.732 2.749,-6.991 0.709,-5.344 -0.843,-4.095 0.018,-2.019 0,0"
             style="fill:#dc6243;fill-opacity:1;fill-rule:nonzero;stroke:none"
             id="path3849"
             inkscape:connector-curvature="0" /></g><g
           id="g3851"
           transform="translate(45.3203,43.2871)"><path
             d="M 0,0 C -3.489,-1.046 -8.122,1.207 -2.51,2.34 0.973,3.044 4.677,1.562 0,0 0.141,0.042 -0.128,-0.043 0,0"
             style="fill:#dc6243;fill-opacity:1;fill-rule:nonzero;stroke:none"
             id="path3853"
             inkscape:connector-curvature="0" /></g><g
           id="g3855"
           transform="translate(49.6904,43.4277)"><path
             d="M 0,0 C -0.736,1.658 0.562,3.635 2.68,2.199 4.526,0.947 1.829,-0.907 0,0"
             style="fill:#dc6243;fill-opacity:1;fill-rule:nonzero;stroke:none"
             id="path3857"
             inkscape:connector-curvature="0" /></g><g
           id="g3859"
           transform="translate(46.7441,38.7598)"><path
             d="M 0,0 C -2.411,0.747 -10.537,0.561 -5.218,2.764 -3.578,3.443 4.937,2.666 0,0"
             style="fill:#dc6243;fill-opacity:1;fill-rule:nonzero;stroke:none"
             id="path3861"
             inkscape:connector-curvature="0" /></g><g
           id="g3863"
           transform="translate(49.959,39.1128)"><path
             d="M 0,0 C -0.007,0.96 -0.512,2.679 1.354,1.946 3.589,1.067 0,-0.705 0,0 0,0 0,0.169 0,0"
             style="fill:#dc6243;fill-opacity:1;fill-rule:nonzero;stroke:none"
             id="path3865"
             inkscape:connector-curvature="0" /></g><g
           id="g3867"
           transform="translate(57.1777,35.4458)"><path
             d="M 0,0 C -1.437,1.227 -2.891,1.295 -4.229,0 -6.023,3.293 -12.547,2.19 -15.595,2.651 -13.956,-1.377 -0.73,-2.129 0,0"
             style="fill:#dc6243;fill-opacity:1;fill-rule:nonzero;stroke:none"
             id="path3869"
             inkscape:connector-curvature="0" /></g><g
           id="g3871"
           transform="translate(55.2754,33.0215)"><path
             d="m 0,0 c -3.151,0.146 -6.671,0.563 -9.646,-0.084 1.86,-0.466 6.396,-1.795 2.171,-2.918 1.516,-2.168 3.974,-2.029 5.584,-0.127 C -2.545,-2.807 -2.9,-2.41 -3.442,-2.072 -1.771,-1.769 -0.208,-0.805 0,0"
             style="fill:#dc6243;fill-opacity:1;fill-rule:nonzero;stroke:none"
             id="path3873"
             inkscape:connector-curvature="0" /></g><g
           id="g3875"
           transform="translate(58.8711,36.8989)"><path
             d="m 0,0 c -5.288,3.112 -3.95,5.427 0.354,7.586 2.254,1.131 7.324,5.208 9.447,3.85 C 6.533,7.624 3.266,3.812 0,0"
             style="fill:#dc6243;fill-opacity:1;fill-rule:nonzero;stroke:none"
             id="path3877"
             inkscape:connector-curvature="0" /></g><g
           id="g3879"
           transform="translate(55.1064,44.1748)"><path
             d="M 0,0 C -4.479,4.601 6.688,4.178 8.486,5.796 9.798,5.359 19.255,14.079 21.558,13.537 19.902,11.596 16.338,5.401 13.783,5.401 11.818,5.401 9.833,5.693 8.311,4.294 6.087,2.246 2.402,1.204 0,0"
             style="fill:#f49774;fill-opacity:1;fill-rule:nonzero;stroke:none"
             id="path3881"
             inkscape:connector-curvature="0" /></g><g
           id="g3883"
           transform="translate(56.5732,49.8008)"><path
             d="M 0,0 C -2.453,-1.319 -4.772,3.907 -0.537,3.398 2.276,3.06 5.125,3.635 7.811,3.172 5.884,0.881 3.104,-0.381 0,0"
             style="fill:#f4b1a4;fill-opacity:1;fill-rule:nonzero;stroke:none"
             id="path3885"
             inkscape:connector-curvature="0" /></g><g
           id="g3887"
           transform="translate(69.2051,31.5176)"><path
             d="m 0,0 c 0.191,-0.648 0.299,-1.332 0.215,-2.009 -0.107,-0.873 -0.979,-2.925 -2.173,-2.34 -1.169,0.574 -2.194,1.728 -3.188,2.552 0.802,0.936 1.507,1.749 2.854,1.295 0.37,-0.123 0.688,0.036 0.299,0.262 -0.404,0.234 -3.113,1.965 -3.261,1.799 -0.27,-0.311 0.528,-0.868 0.221,-1.473 -0.229,-0.447 -0.61,-0.834 -0.932,-1.219 -0.72,0.608 -1.923,1.253 -1.056,2.256 0.542,0.66 1.25,1.172 2.097,1.342 0.566,0.114 1.841,-0.389 2.006,0.224 -1.087,0.522 -2.172,1.044 -3.258,1.565 0.177,-0.799 -3.348,-4.525 -4.131,-5.463 -0.113,-0.138 -0.658,-0.609 -0.664,-0.798 -0.008,-0.429 0.622,-0.097 0.658,-0.084 0.485,0.181 6.815,-5.108 6.972,-5.471 0.1,-0.281 -0.221,-0.574 -0.029,-0.731 -0.011,0.01 0.228,-0.217 0.253,-0.185 0.391,0.468 4.522,5.976 5.374,6.217 C 1.463,-1.046 0.669,0.17 -0.111,1.391 -0.701,1.133 -0.13,0.442 0,0"
             style="fill:#ffffff;fill-opacity:1;fill-rule:nonzero;stroke:none"
             id="path3889"
             inkscape:connector-curvature="0" /></g><g
           id="g3891"
           transform="translate(63.0439,24.8145)"><path
             d="m 0,0 c -2.077,1.34 -5.596,-1.279 -6.125,-1.531 -1.039,-0.491 -1.789,0.543 -1.251,1.502 0.469,0.83 1.394,1.234 2.311,1.289 0.276,0.017 1.349,-0.197 1.459,-0.026 0.129,0.203 0.227,0.221 0.042,0.346 -0.857,0.578 -1.712,1.155 -2.568,1.733 -0.176,-1.055 -1.385,-1.727 -2.076,-2.44 -0.822,-0.854 -1.52,-1.931 -1.52,-3.156 0,-1.135 0.679,-2.143 1.677,-2.66 1.136,-0.592 2.318,-0.117 3.324,0.51 0.627,0.392 1.254,0.857 1.924,1.171 0.996,0.467 2.304,0.063 1.953,-1.269 -0.282,-1.073 -1.351,-2.062 -2.405,-2.34 -0.616,-0.164 -1.269,-0.109 -1.872,0.09 -0.432,0.141 -0.993,0.734 -1.229,0.111 1.161,-0.847 2.32,-1.691 3.481,-2.537 0.104,0.76 0.522,1.09 1.086,1.563 0.735,0.646 1.438,1.32 1.994,2.13 C 1.364,-3.82 1.743,-1.451 0,0"
             style="fill:#ffffff;fill-opacity:1;fill-rule:nonzero;stroke:none"
             id="path3893"
             inkscape:connector-curvature="0" /></g><g
           id="g3895"
           transform="translate(63.0439,24.8145)"><path
             d="M 0,0 C 0.925,-0.598 -0.591,0.494 0,0"
             style="fill:#ffffff;fill-opacity:1;fill-rule:nonzero;stroke:none"
             id="path3897"
             inkscape:connector-curvature="0" /></g><g
           id="g3899"
           transform="translate(92.2773,62.1289)"><path
             d="M 0,0 C -0.007,-0.004 -0.007,-0.004 0,0"
             style="fill:#ffffff;fill-opacity:1;fill-rule:nonzero;stroke:none"
             id="path3901"
             inkscape:connector-curvature="0" /></g><g
           id="g3903"
           transform="translate(92.3613,62.1831)"><path
             d="m 0,0 c 0.077,0.049 0.153,0.098 0,0 -0.051,-0.032 -0.074,-0.047 -0.084,-0.054 0.014,0.008 0.047,0.03 0.082,0.052 C -0.347,-0.222 -0.67,-0.475 -0.96,-0.763 -1.481,0.134 -2.004,1.032 -2.524,1.93 -1.347,1.439 -0.172,0.945 1,0.449 0.646,0.351 0.309,0.196 0,0 M 7.374,2.156 C 6.645,1.427 -1.046,4.497 -1.608,4.92 -1.898,5.036 -1.908,6.241 -2.313,5.753 -2.717,5.265 -3.123,4.777 -3.529,4.29 -3.947,3.785 -4.366,3.281 -4.785,2.777 -5.045,2.463 -5.322,2.319 -4.823,2.057 c 0.837,0.419 5.417,-7.346 5.008,-8.461 -0.725,-0.376 -6.915,5.057 -7.081,5.415 -0.052,0.146 0.273,1.021 -0.211,0.945 -0.229,-0.036 -0.744,-0.896 -0.889,-1.072 -0.297,-0.357 -0.592,-0.715 -0.889,-1.072 0.332,-0.485 0.517,0.021 0.959,-0.042 0.383,-0.077 1.844,-1.331 2.24,-1.664 -0.724,-0.027 -2.684,-0.131 -2.933,-0.113 -0.903,-0.112 -0.422,0.663 -1.015,0.931 -0.76,-0.922 -1.52,-1.843 -2.277,-2.764 -0.442,-0.536 -0.885,-1.072 -1.326,-1.607 -0.054,-0.065 -0.047,-0.032 0.049,-0.112 0.331,-0.273 0.105,-0.168 0.569,-0.006 0.506,0.177 6.558,-4.931 6.776,-5.19 0.377,-0.45 -0.154,-0.975 0.411,-1.221 0.6,0.728 1.198,1.457 1.798,2.184 0.091,0.11 0.141,0.1 0.021,0.198 -0.427,0.353 -0.476,-0.212 -1.002,-0.154 -0.533,0.089 -4.395,3.369 -5.895,4.61 1.822,0.068 7.291,0.271 8.198,0.304 0.301,0.011 1.14,-0.896 1.069,-1.216 -0.081,-0.378 -0.463,-0.558 0.054,-0.794 0.479,0.575 0.985,1.149 1.456,1.734 l 0.227,0.282 c 0.076,0.052 0.146,0.145 0.21,0.265 l 0.168,0.211 c 0.425,0.485 1.8,2.006 1.635,2.15 -0.461,0.4 -0.685,-0.466 -1.298,0.054 -0.348,0.249 -1.223,1.788 -1.443,2.162 -0.264,0.449 0.608,0.897 0.963,1.119 0.777,0.482 3.248,1.183 3.483,-0.348 C 4.252,-1.473 3.94,-1.765 4.128,-1.919 4.172,-1.956 4.332,-2.161 4.397,-2.082 4.561,-1.885 6.759,0.761 7.698,1.887 7.6,1.969 7.491,2.111 7.374,2.156"
             style="fill:#ffffff;fill-opacity:1;fill-rule:nonzero;stroke:none"
             id="path3905"
             inkscape:connector-curvature="0" /></g><g
           id="g3907"
           transform="translate(82.335,44.3579)"><path
             d="m 0,0 c -0.019,-0.02 -0.024,-0.027 -0.025,-0.027 -1.233,-1.292 -3.359,-0.096 -4.506,0.731 -1.146,0.829 -3.111,2.57 -1.856,4.104 1.056,1.287 3.124,0.231 4.192,-0.482 C -0.996,3.523 1.216,1.73 0.08,0.11 0.154,0.2 0.206,0.258 0,0 M 0.281,6.614 C -2.094,8.593 -5.349,8.018 -7.305,5.782 -9.208,3.47 -9.017,0.119 -6.7,-1.833 c 2.34,-1.926 5.671,-1.438 7.572,0.846 1.899,2.303 1.769,5.668 -0.591,7.601"
             style="fill:#ffffff;fill-opacity:1;fill-rule:nonzero;stroke:none"
             id="path3909"
             inkscape:connector-curvature="0" /></g><g
           id="g3911"
           transform="translate(82.6162,50.9717)"><path
             d="M 0,0 C 1.171,-0.959 -0.253,0.211 0,0"
             style="fill:#ffffff;fill-opacity:1;fill-rule:nonzero;stroke:none"
             id="path3913"
             inkscape:connector-curvature="0" /></g><g
           id="g3915"
           transform="translate(82.3076,44.3311)"><path
             d="M 0,0 C 0.009,0.01 0.018,0.018 0.025,0.027 0.055,0.064 0.082,0.1 0.105,0.137 0.057,0.076 -0.005,0 0,0"
             style="fill:#ffffff;fill-opacity:1;fill-rule:nonzero;stroke:none"
             id="path3917"
             inkscape:connector-curvature="0" /></g><g
           id="g3919"
           transform="translate(74.7061,35.0938)"><path
             d="M 0,0 C -0.24,-0.296 -0.044,-0.054 -0.665,-0.65 -0.971,-0.943 -7.103,4.025 -6.856,4.294 -6.021,5.212 -4.29,5.85 -3.28,5.591 -1.09,5.031 1.934,2.331 0,0 M 1.318,6.754 C 1.43,6.66 1.591,6.53 1.255,6.811 -1.58,8.938 -4.938,8.315 -7.146,5.654 -8.135,4.465 -9.123,3.276 -10.107,2.087 c 0.35,-0.512 0.762,0.118 1.272,-0.176 0.437,-0.25 6.244,-5.1 6.339,-5.366 0.164,-0.458 -0.255,-0.548 0.144,-0.875 0.172,-0.143 4.537,5.245 4.935,6.191 0.69,1.755 0.14,3.678 -1.265,4.893"
             style="fill:#ffffff;fill-opacity:1;fill-rule:nonzero;stroke:none"
             id="path3921"
             inkscape:connector-curvature="0" /></g></g></g></g></svg>